<svg xmlns="http://www.w3.org/2000/svg" viewBox="0 0 279.1 273.06">
  <g transform="translate(30.7, 30.0) scale(0.78)">
    <path d="M69.29,82.34L99.33,57.43A86.55,90 50.34,0 1,223.86 66.63L223.86,66.63A86.55,90 50.34,0 1,209.82 190.7L179.77,215.61A86.55,90 50.34,0 1,55.24 206.42L55.24,206.42A86.55,90 50.34,0 1,69.29 82.34z" fill="#000000"/>
    <path d="M112.47,134.09L87.22,160.96C85.51,162.77 85.51,165.74 87.22,167.55L111.56,193.44C113.26,195.25 116.05,195.25 117.75,193.44L143.92,165.6C144.75,164.76 145.19,163.55 145.19,162.35L145.19,82.9C145.19,78.77 149.86,76.68 152.65,79.61L193.17,122.48" fill="none" stroke="#FFFFFF" stroke-width="22.5" stroke-linecap="butt" stroke-linejoin="miter"/>
  </g>
</svg>
